<?xml version="1.0" encoding="UTF-8"?>
<svg id="Layer_2" xmlns="http://www.w3.org/2000/svg" version="1.1" viewBox="0 0 100 100">
  <!-- Generator: Adobe Illustrator 29.1.0, SVG Export Plug-In . SVG Version: 2.1.0 Build 142)  -->
  <defs>
    <style>
      .st0 {
        fill: #fff;
      }

      .st1 {
        fill: #1678fe;
      }
    </style>
  </defs>
  <g>
    <path class="st1" d="M92,65.8c2.6.7,5.2,1.6,7.9,2,0,0,0,0,0,0V0H0v100h100v-16.8s0,0,0,0c-2-.7-3.9-1.6-5.8-2.4-11.1-4.7-22.2-9.4-33-14.6-3.7,4.3-7.8,8.4-12.6,11.4-6.3,4.1-13.8,6.4-21.3,5.9-5.8-.2-11.8-2.4-15.7-6.9-2.4-2.7-3.8-6.3-4-9.9-.2-4.8,1.8-9.6,5.1-13.1,3-2.9,7-4.6,11.1-5.4,3.6-.7,7.2-.4,10.8,0,7.8,1.1,15.5,3.2,23,5.8,2.4-4.3,4.3-8.9,5.7-13.7H23.9c0,0,0-4,0-4h20.2s0-7.1,0-7.1h-24.4s0-4,0-4h24.4s0-6.8,0-10.2c0-.9.9-1.7,1.8-1.6,3.2,0,6.5,0,9.7,0,0,3.9,0,11.8,0,11.8h24.2c0,0-.1,4-.1,4h-24.1s0,7,0,7c0,0,13.2,0,19.7,0-1.7,7.4-4.6,14.5-8.3,21.1,8.2,3,16.4,6.1,24.8,8.5Z"/>
    <path class="st1" d="M17.3,56.3c-3.5,1.5-6.3,5.1-6.3,9-.1,3.2,1.6,6.2,4.1,8.1,3.3,2.6,7.7,3.5,11.8,3.5,7.2.2,13.8-3.5,19.1-8.1,2.2-2.2,4.5-4.3,6.3-6.9-5.2-2.5-10.5-5-16.2-6.4-6.1-1.6-12.9-1.8-18.8.9Z"/>
  </g>
  <path class="st0" d="M63.1,40.2c-1.4,4.8-3.2,9.4-5.7,13.7-7.5-2.5-15.2-4.7-23-5.8-3.6-.4-7.2-.6-10.8,0-4.1.8-8.1,2.5-11.1,5.4-3.3,3.5-5.3,8.3-5.1,13.1.3,3.6,1.6,7.2,4,9.9,3.9,4.5,9.9,6.7,15.7,6.9,7.5.5,15-1.9,21.3-5.9,4.8-3,9-7,12.6-11.4,10.9,5.2,22,9.9,33,14.6,2,.8,3.9,1.7,5.8,2.4,0,0,0,0,0,0v-15.4s0,0,0,0c-2.7-.4-5.3-1.3-7.9-2-8.4-2.4-16.6-5.5-24.8-8.5,3.7-6.6,6.6-13.7,8.3-21.1-6.6,0-19.7,0-19.7,0v-7s24.1,0,24.1,0v-4c.1,0-24.1,0-24.1,0,0,0,0-7.9,0-11.8-3.2,0-6.5,0-9.7,0-.9-.1-1.8.7-1.8,1.6,0,3.4,0,10.2,0,10.2h-24.4s0,4,0,4h24.4s0,7,0,7h-20.2s0,4,0,4M46,68.7c-5.3,4.6-11.9,8.3-19.1,8.1-4.1,0-8.5-.9-11.8-3.5-2.4-1.9-4.2-4.9-4.1-8.1,0-3.9,2.8-7.5,6.3-9,5.9-2.7,12.7-2.5,18.8-.9,5.6,1.4,10.9,4,16.2,6.4-1.7,2.6-4,4.8-6.3,6.9Z"/>
</svg>