<?xml version="1.0" encoding="UTF-8"?>
<svg id="Layer_2" xmlns="http://www.w3.org/2000/svg" version="1.1" viewBox="0 0 100 100">
  <!-- Generator: Adobe Illustrator 29.1.0, SVG Export Plug-In . SVG Version: 2.1.0 Build 142)  -->
  <defs>
    <style>
      .st0 {
        fill: #42af33;
      }

      .st1 {
        fill: #fff;
      }
    </style>
  </defs>
  <path class="st0" d="M0,0v100h100V0H0ZM84.6,50.5c-.4,4.4-2,8.6-4.5,12.2-1.8,2.5-3.9,4.8-6.3,6.7-4.5,3.5-9.8,5.8-15.4,7-6.2,1.3-12.7,1.1-18.8-.5-.6-.2-1.3-.4-1.9-.4-.6,0-1.2.2-1.8.5-2.7,1.5-5.3,3.1-8,4.6-.8.4-1.7-.5-1.5-1.3.6-2.2,1.2-4.5,1.8-6.7,0-.5,0-1,0-1.5v.5c-.3-.5-.5-1-.9-1.3-1.3-1.1-2.7-2-3.9-3.3-4.6-4.4-7.7-10.5-8.2-16.9,0-.8-.2-1.5,0-2.3.1-1,0-2,.2-3,.2-1,.3-2,.6-3,1.1-4.2,3.4-8.1,6.4-11.3,3.5-3.8,8-6.6,12.7-8.5,3.3-1.3,6.8-2.2,10.4-2.5,4.3-.5,8.7-.2,12.9.7,1.6.4,3.1.8,4.7,1.3,3.5,1.2,6.8,3,9.8,5.1,1.5,1,2.8,2.3,4,3.5.4.5.8.8,1.1,1.4-11.6,5.2-23.2,10.3-34.7,15.5-1.1.5-2.4.4-3.4-.3-2.5-1.7-4.9-3.5-7.4-5.2-.5-.3-1.2-.3-1.6.2-.4.4-.4,1.1-.1,1.6,1.8,3.9,3.6,7.9,5.4,11.8.5,1,.8,2.1,1.6,2.8.8.7,2,.8,2.9.1,13.3-7.7,26.6-15.4,39.9-23.1,2.3,3.7,3.8,8,3.9,12.3.2,1.1,0,2.1,0,3.2Z"/>
  <path class="st1" d="M84.6,50.5c-.4,4.4-2,8.6-4.5,12.2-1.8,2.5-3.9,4.8-6.3,6.7-4.5,3.5-9.8,5.8-15.4,7-6.2,1.3-12.7,1.1-18.8-.5-.6-.2-1.3-.4-1.9-.4-.6,0-1.2.2-1.8.5-2.7,1.5-5.3,3.1-8,4.6-.8.4-1.7-.5-1.5-1.3.6-2.2,1.2-4.5,1.8-6.7,0-.5,0-1,0-1.5v.5c-.3-.5-.5-1-.9-1.3-1.3-1.1-2.7-2-3.9-3.3-4.6-4.4-7.7-10.5-8.2-16.9,0-.8-.2-1.5,0-2.3.1-1,0-2,.2-3,.2-1,.3-2,.6-3,1.1-4.2,3.4-8.1,6.4-11.3,3.5-3.8,8-6.6,12.7-8.5,3.3-1.3,6.8-2.2,10.4-2.5,4.3-.5,8.7-.2,12.9.7,1.6.4,3.1.8,4.7,1.3,3.5,1.2,6.8,3,9.8,5.1,1.5,1,2.8,2.3,4,3.5.4.5.8.8,1.1,1.4-11.6,5.2-23.2,10.3-34.7,15.5-1.1.5-2.4.4-3.4-.3-2.5-1.7-4.9-3.5-7.4-5.2-.5-.3-1.2-.3-1.6.2-.4.4-.4,1.1-.1,1.6,1.8,3.9,3.6,7.9,5.4,11.8.5,1,.8,2.1,1.6,2.8.8.7,2,.8,2.9.1,13.3-7.7,26.6-15.4,39.9-23.1,2.3,3.7,3.8,8,3.9,12.3.2,1.1,0,2.1,0,3.2Z"/>
</svg>