<?xml version="1.0" encoding="UTF-8"?>
<svg id="Layer_2" data-name="Layer 2" xmlns="http://www.w3.org/2000/svg" xmlns:xlink="http://www.w3.org/1999/xlink" viewBox="0 0 100 100">
  <defs>
    <style>
      .cls-1 {
        font-family: AvenirNext-Regular, 'Avenir Next';
        font-size: 5.67px;
      }

      .cls-2 {
        fill: #f7cd47;
      }

      .cls-3 {
        fill: url(#linear-gradient);
      }

      .cls-4 {
        fill: #fff;
      }

      .cls-5 {
        fill: #4f76a1;
      }

      .cls-6 {
        fill: #fdfdfd;
      }
    </style>
    <linearGradient id="linear-gradient" x1="55.36" y1="19.44" x2="65.1" y2="19.44" gradientUnits="userSpaceOnUse">
      <stop offset="0" stop-color="#f8cd46" stop-opacity="0"/>
      <stop offset=".8" stop-color="#f8cd46"/>
    </linearGradient>
  </defs>
  <g id="Layer_1-2" data-name="Layer 1">
    <g>
      <path class="cls-5" d="M100,89.62c-18.93-10-65.86-15.34-100-1.43V14.63c18.86,10.3,43.54,15.89,72.22,10.35-1.7,2.87-4.45,6.46-8.19,10.63,5.09-2.46,16.24-9.55,22.39-15.88,5.28-.67,9.9-2.8,13.58-5.23v75.12Z"/>
      <g>
        <path d="M0,88.19v11.81h100v-10.38C81.07,79.61,34.14,74.28,0,88.19Z"/>
        <path d="M0,0v14.63c18.86,10.3,43.54,15.89,72.22,10.35-1.7,2.87-4.45,6.46-8.19,10.63,5.09-2.46,16.24-9.55,22.39-15.88,5.28-.67,9.9-2.8,13.58-5.23V0H0Z"/>
      </g>
      <text class="cls-1" transform="translate(32.02 40.52)"><tspan x="0" y="0">Note Example</tspan></text>
      <g id="ComfyPanel">
        <path class="cls-2" d="M49,4.82c-1.04,1.28-1.77,2.77-2.14,4.38-2.4-1.23-5.33-.28-6.56,2.12-1.23,2.4-.28,5.33,2.12,6.56s5.33.28,6.56-2.12c.35-.69.53-1.45.53-2.22v8.44c-2.83,1.64-6.3,1.74-9.23.28-4.81-2.41-6.77-8.26-4.36-13.07,2.41-4.81,8.26-6.77,13.07-4.36Z"/>
        <path class="cls-5" d="M57.31,19.39h-1.95v-4.87h1.95c1.61,0,2.92-1.31,2.92-2.92s-1.31-2.92-2.92-2.92-2.92,1.31-2.92,2.92v11.69h-4.87v-11.69c0-4.3,3.49-7.79,7.79-7.79s7.79,3.49,7.79,7.79-3.49,7.79-7.79,7.79Z"/>
        <path class="cls-3" d="M57.43,23.28c4.24,0,7.67-3.44,7.67-7.67-1.5,2.92-4.51,4.75-7.79,4.75h-1.95v2.92h2.07Z"/>
      </g>
      <g>
        <g>
          <path class="cls-2" d="M36.47,91.31c-.15.08-.32.12-.51.12-.17,0-.32-.03-.47-.1-.14-.07-.27-.16-.38-.28-.11-.12-.19-.26-.25-.43-.06-.16-.09-.35-.09-.54s.03-.37.09-.54c.06-.17.15-.31.26-.43.11-.12.24-.22.39-.28.15-.07.31-.1.49-.1s.33.03.46.09c.13.06.24.15.34.26l.71-.58c-.09-.12-.19-.21-.31-.29-.12-.08-.24-.14-.36-.19s-.25-.08-.38-.1c-.13-.02-.25-.03-.37-.03-.33,0-.63.05-.91.15-.28.1-.52.25-.72.44-.2.19-.36.43-.47.7-.11.27-.17.58-.17.92s.06.64.17.92c.11.27.27.51.47.7.2.19.44.34.72.44.28.1.58.15.91.15.29,0,.57-.06.85-.18.27-.12.5-.3.68-.55l-.77-.58c-.1.14-.22.25-.36.33Z"/>
          <path class="cls-2" d="M40.64,89.63c-.14-.13-.32-.24-.51-.31-.2-.07-.41-.11-.63-.11s-.43.04-.63.11c-.2.07-.37.17-.51.31s-.26.29-.34.48c-.08.19-.13.4-.13.63s.04.44.13.62c.08.19.2.35.34.48s.32.24.51.31c.2.07.41.11.63.11s.43-.04.63-.11c.2-.07.37-.17.51-.31.14-.13.26-.29.34-.48.08-.19.12-.39.12-.62s-.04-.44-.12-.63c-.08-.19-.2-.35-.34-.48ZM40.03,91.26c-.12.14-.3.2-.53.2s-.4-.07-.53-.2c-.12-.13-.19-.31-.19-.53s.06-.4.19-.53c.12-.13.3-.2.53-.2s.4.07.53.2c.12.13.19.31.19.53s-.06.39-.19.53Z"/>
          <path class="cls-2" d="M45.96,89.58c-.08-.11-.18-.2-.32-.27-.13-.07-.3-.1-.49-.1-.21,0-.39.04-.54.12-.15.08-.27.21-.38.4-.08-.18-.2-.31-.35-.39-.16-.08-.34-.12-.54-.12-.11,0-.21.01-.3.04-.09.03-.17.06-.24.11-.07.04-.13.09-.18.15-.05.06-.09.11-.12.17h-.01v-.39h-.86v2.89h.89v-1.44c0-.1,0-.19.02-.27.01-.09.04-.17.07-.24.04-.07.09-.12.16-.17.07-.04.16-.06.28-.06.1,0,.18.02.24.07.05.05.09.11.12.17.02.07.04.14.04.21,0,.08,0,.14,0,.19v1.53h.89v-1.53c0-.09,0-.17.03-.25.02-.08.05-.15.09-.21.04-.06.1-.11.17-.14.07-.03.16-.05.26-.05.15,0,.25.05.31.15.06.1.09.21.09.35v1.68h.89v-1.71c0-.17-.02-.34-.05-.49-.03-.15-.09-.29-.17-.4Z"/>
          <path class="cls-2" d="M48.01,88.83c0-.19.04-.32.11-.38.07-.06.18-.09.32-.09.06,0,.11,0,.15.02.04,0,.09.02.14.04l.04-.76c-.08-.02-.17-.03-.26-.04-.09,0-.18-.01-.27-.01-.24,0-.44.03-.59.09-.15.06-.26.15-.34.25-.08.11-.13.23-.16.37-.03.14-.04.29-.04.45v.51h-.59v.71h.59v2.18h.89v-2.18h.66v-.71h-.66v-.46Z"/>
          <path class="cls-2" d="M51.07,89.29l-.64,1.91h-.01l-.74-1.91h-.96l1.27,2.92-.07.17c-.03.08-.06.15-.09.21-.03.06-.06.11-.1.15-.04.04-.09.07-.16.1-.06.02-.14.03-.24.03-.14,0-.28-.03-.42-.09l-.12.73c.21.07.44.11.67.11.21,0,.39-.02.52-.06.13-.04.24-.1.32-.18.09-.08.16-.18.21-.3.06-.12.11-.26.17-.41l1.31-3.36h-.92Z"/>
        </g>
        <g>
          <path class="cls-4" d="M54.81,88.21c-.14-.09-.29-.15-.47-.19-.18-.04-.36-.06-.56-.06h-1.25v4.21h.5v-1.89h.85c.15,0,.3-.02.46-.05.16-.04.31-.1.45-.18.14-.09.25-.21.34-.36.09-.15.13-.34.13-.57s-.04-.4-.12-.55c-.08-.15-.19-.27-.33-.36ZM54.49,89.65c-.16.11-.36.17-.61.17h-.85v-1.39h.85c.25,0,.45.06.61.17.16.11.24.29.24.53s-.08.41-.24.53Z"/>
          <path class="cls-4" d="M58.21,91.7v-1.2c0-.4-.09-.69-.27-.89-.18-.19-.48-.29-.89-.29-.2,0-.4.03-.6.1s-.37.18-.51.32l.29.3c.11-.1.24-.18.38-.23.14-.05.29-.07.44-.07.22,0,.39.05.51.15.12.1.18.26.18.46v.08h-.18c-.17,0-.36,0-.56.02-.2.02-.39.06-.57.12-.18.06-.32.16-.44.29-.12.13-.18.31-.18.54,0,.13.03.25.08.36.06.1.13.19.22.26.09.07.2.12.33.16.12.04.26.05.4.05.21,0,.4-.05.55-.14.15-.09.27-.21.37-.35h.01c0,.06,0,.13,0,.21,0,.08.01.15.03.21h.45c-.01-.07-.02-.15-.03-.24,0-.09-.01-.17-.01-.25ZM57.75,91.02c0,.12-.02.22-.06.32-.04.1-.09.19-.15.26-.07.08-.15.14-.25.18-.1.05-.22.07-.35.07-.17,0-.32-.04-.44-.11-.12-.07-.18-.2-.18-.37,0-.19.09-.33.26-.41.17-.08.41-.12.71-.12h.46v.18Z"/>
          <path class="cls-4" d="M61.24,89.64c-.09-.1-.2-.18-.33-.23-.13-.06-.29-.08-.47-.08-.12,0-.22.01-.32.04-.1.03-.19.07-.27.12-.08.05-.15.11-.21.17-.06.06-.1.13-.13.2h-.01c0-.08,0-.16,0-.23,0-.08,0-.15,0-.23h-.44c0,.09,0,.19.01.3,0,.11.01.23.01.36v2.12h.46v-1.36c0-.16.02-.3.05-.43.03-.13.09-.24.15-.34.07-.1.16-.17.27-.22.11-.05.24-.08.39-.08.22,0,.38.07.48.2s.15.32.15.55v1.67h.46v-1.72c0-.17-.02-.32-.06-.46-.04-.14-.11-.26-.19-.36Z"/>
          <path class="cls-4" d="M64.6,89.71c-.12-.13-.26-.22-.42-.29-.16-.07-.34-.1-.54-.1-.21,0-.4.04-.57.11-.17.07-.33.17-.45.3-.13.13-.23.28-.3.46-.07.18-.11.38-.11.59,0,.2.03.39.1.57.07.18.16.33.28.46.12.13.27.24.44.31.17.08.37.12.59.12.26,0,.49-.04.69-.13.2-.09.38-.24.55-.45l-.35-.27c-.11.14-.24.24-.38.32-.14.07-.31.11-.51.11-.13,0-.24-.02-.35-.07-.11-.05-.2-.11-.28-.19-.08-.08-.14-.18-.19-.29-.05-.11-.08-.22-.09-.34h2.25v-.15c0-.23-.03-.44-.1-.62-.06-.18-.15-.33-.27-.46ZM62.71,90.54c.03-.24.13-.43.29-.57s.37-.21.63-.21.46.07.61.21.22.33.23.57h-1.75Z"/>
          <rect class="cls-4" x="65.73" y="87.68" width=".46" height="4.5"/>
        </g>
      </g>
      <g>
        <g>
          <path d="M48,44.37h1.32c.51.43,1.19.83,1.28,1.56.12.88.02,1.77.02,2.65,1.06-.37,2.19-.65,3.32-.41,1.47.29,2.98.24,4.48.22.3,1.2.59,2.4.88,3.61.3-1.2.6-2.4.9-3.6h3.61c.32,1.18.64,2.35.97,3.53.29-1.17.56-2.35.84-3.53.48,0,.97,0,1.45,0,0-.91,0-1.81,0-2.72,1.57,0,3.14-.01,4.71,0,1.08,0,2.21.16,3.11.79.59.4.94,1.05,1.32,1.64.88-.02,1.76,0,2.62.16,1.38.23,2.79.14,4.19.14.05,1.63-.12,3.27.09,4.88.2.54,1.06.26,1.02-.26.17-1.53.02-3.08.07-4.62,1.56.02,3.13.07,4.67-.22,1.26-.25,2.51.1,3.69.51,1.52-.66,3.37-.93,4.86-.04,1.13.61,1.79,1.8,2.05,3.02v4.24c-.1.81-.05,1.77-.76,2.32-1.75,1.64-4.53,1.55-6.5.37-.59.32-1.19.68-1.87.8-1.41.25-2.81-.24-4.22-.22-.71.01-1.42-.06-2.1-.28-.72.29-1.49.58-2.28.44-1.39-.21-2.79-.18-4.19-.25-1.22.39-2.7.49-3.7-.45-.86-.72-.78-1.92-.82-2.93-.68.03-1.37.04-2.06.06,0,1.13,0,2.26,0,3.39-1.29,0-2.57,0-3.85,0-.05-.34-.1-.68-.15-1.03-.06.34-.13.68-.19,1.02-1.27,0-2.54,0-3.81,0-.32-1.2-.68-2.39-1.05-3.58-.36,1.2-.72,2.4-1.06,3.6-1.28-.03-2.56-.02-3.84-.03l-.17-1.01c-1.65,1.45-3.99,1.63-6,.91-1.33.16-2.68.11-4.02.11-.03-.38-.05-.76-.08-1.14-.1.38-.21.76-.3,1.14-1.36,0-2.73,0-4.09.02-.15-.4-.31-.8-.46-1.2-2.06,2.09-5.85,2-7.72-.3,0,.49.02.99.03,1.48h-3.84c0-1.17,0-2.34,0-3.51-.82.07-1.65.11-2.47.14,0,1.13,0,2.25,0,3.37h-3.89c0-.54,0-1.08-.01-1.62-.63,1.54-1.03,3.31-2.37,4.41-1.38,1.08-3.24.82-4.85.59,0-1.13-.01-2.25.03-3.38h-1.58c-.02-1.75.07-3.51-.12-5.26-.35.16-.94.13-.95.65-.23,1.52-.05,3.08-.1,4.62-1.74,0-3.47-.01-5.21,0-.18-.52-.36-1.03-.54-1.55h-3.09c-.18.52-.35,1.04-.51,1.56-1.37-.02-2.75-.01-4.12-.01v-2.73c1.41-3.59,2.83-7.17,4.25-10.75,1.35,0,2.7,0,4.05,0,.47,1.21.95,2.42,1.42,3.62,0-.23-.01-.68-.02-.91,1.23,0,2.47,0,3.7,0,0,.11,0,.32-.01.42.75-.34,1.55-.76,2.41-.62,1.36.2,2.73.24,4.09.2.36,1.24.71,2.47,1.05,3.71.3-1.24.62-2.47.92-3.7.52-.01,1.04-.02,1.57-.04,0-.9,0-1.79,0-2.69,2.09.07,4.21-.17,6.29.15,1.35.2,2.38,1.21,2.89,2.43.34.16.68.31,1.05.42,1.36-.73,2.95-.55,4.44-.52,1.59.28,3.2.28,4.8.24.33,1.26.66,2.52,1,3.78.32-1.25.64-2.51.96-3.76.44-.02.88-.03,1.32-.05,0-.83-.09-1.66.03-2.49.12-.68.77-1.06,1.24-1.5ZM47.32,45.48c-.53.78-.07,1.93.8,2.21,1.03.49,2.34-.54,2.13-1.66-.11-.79-.89-1.22-1.6-1.39-.49.19-1.05.34-1.33.83ZM5.07,46c-1.35,3.37-2.68,6.76-4.01,10.14,1.11-.02,2.22,0,3.32-.02.17-.51.35-1.02.5-1.54,1.23-.03,2.46-.03,3.69,0,.17.52.36,1.03.54,1.55.37,0,.74,0,1.12.01-.03-1.94.03-3.88-.03-5.83-.42-1.47-1.1-2.86-1.61-4.3-1.17,0-2.35,0-3.52,0ZM24.28,46.01v10.13c1.07,0,2.14,0,3.21,0v-3.31c.95,0,1.91-.02,2.85-.22,0-1.41-.06-2.83-.02-4.24.81,0,1.62,0,2.43,0-.42-1.22-1.53-2.06-2.79-2.23-1.88-.23-3.79-.07-5.68-.12ZM67.37,56.13c1.07,0,2.15,0,3.22,0-.05-1.1-.04-2.21-.03-3.31.75-.03,1.5,0,2.25-.11.9-.1,1.47-.9,2.3-1.17-.62-.63-1.26-1.25-1.86-1.89.71-.7,1.62-1.14,2.56-1.45-.46-1.09-1.45-1.87-2.63-2.06-1.92-.27-3.87-.08-5.81-.14v10.12ZM87.3,49.05c-1.21.8-1.41,2.82-.2,3.7.76.68,1.99.47,2.69,1.22-.54.98-1.76.22-2.45-.19-.51.61-1.03,1.2-1.56,1.79,1.81,1.12,4.32,1.51,6.16.23-1.05-1.11-1.57-2.64-1.35-4.16-.49-.15-1.06-.19-1.4-.63.33-.65,1.12-.41,1.67-.27.34-.71.86-1.3,1.41-1.86-1.59-.58-3.51-.86-4.98.18ZM13.61,49.69c0-.24-.03-.72-.04-.96-1,0-1.99,0-2.98,0,0,2.48-.06,4.96-.02,7.44,1.05,0,2.09,0,3.14,0,.03-1.46-.08-2.92,0-4.37.01-.95,1.6-1.2,1.8-.23.24,1.52,0,3.07.07,4.6,1.02,0,2.04,0,3.06,0-.04-.89.15-1.84-.26-2.67-.71-1.67-1.43-3.33-2.12-5.01-1.05-.09-1.88.56-2.63,1.19ZM33.74,49.76c-.02-.26-.07-.78-.09-1.03-.98,0-1.96,0-2.94,0v7.45h3.04c.25-1.74-.71-3.47-.1-5.18.32-1.13,1.22-1.94,2.17-2.56-.87.11-1.52.7-2.09,1.32ZM35.1,49.48c-1.73,1.49-1.69,4.52.05,5.99,1.88,1.53,4.94,1.32,6.53-.54-.71-.36-1.42-.71-2.14-1.06-.95.78-2.75.59-2.99-.79,1.48-.05,2.95-.02,4.43-.02-.56-1.5-1.15-2.98-1.7-4.48-1.43-.35-3.07-.11-4.18.91ZM50.3,49.36c-1.89,1.48-1.89,4.79.05,6.23,1.89,1.41,4.95,1.2,6.42-.72-.7-.39-1.4-.77-2.14-1.08-.58.25-1.19.68-1.85.4-.55-.08-.81-.6-1.1-1.01,1.45-.05,2.91-.01,4.37-.03-.51-1.52-1.04-3.02-1.55-4.54-1.42-.39-3.04-.19-4.2.75ZM73.79,49.63c.48.49.96.97,1.45,1.45.77-.52,1.75-.73,2.62-.33.04.21.14.62.18.82-1.25.1-2.61.1-3.7.8-1.24.74-1.19,2.78,0,3.54,1.16.81,2.79.56,3.7-.5.05.18.16.54.21.72.66,0,1.33,0,1.99.02-.64-.61-1.01-1.45-1.03-2.33-.05-1.69,0-3.39-.02-5.08-1.81-.66-3.87-.28-5.39.88ZM79.49,48.63c.03,1.83-.06,3.66.04,5.49.08,1.22,1.07,2.34,2.33,2.36,1.07.17,2.01-.43,2.71-1.18,0,.31-.01.63-.02.94h2.08c-.38-.21-.75-.42-1.12-.63.6-.66,1.12-1.39,1.78-2l.61-.07c-.89-.56-1.92-1.33-1.81-2.51-.09-1.03.67-1.81,1.39-2.42-1,.03-2,.02-2.99.02-.04,1.47.09,2.96-.06,4.43-.04.89-1.49,1.12-1.65.19-.18-1.53-.03-3.08-.08-4.61h-3.21ZM91.29,50.81c-.5,1.34-.42,3.02.54,4.15,1.7,2.08,5.3,2.01,7-.05-.71-.35-1.41-.71-2.12-1.06-.95.82-2.71.58-3.03-.75,1.83-.11,3.67-.02,5.5-.05-.04-1.24-.24-2.59-1.18-3.5-1.89-1.96-5.68-1.28-6.71,1.26ZM16.75,48.73c.95,2.25,1.9,4.49,2.86,6.73.14.35.37.77.05,1.1-.39.84-1.41.69-2.17.63-.12.81-.23,1.63-.36,2.44,1.36.12,2.9.37,4.08-.48,1.28-.94,1.64-2.55,2.23-3.93.21-.63.61-1.23.58-1.91,0-1.52,0-3.05,0-4.57-.45,0-.9,0-1.35,0-.37,1.45-.67,2.91-1.12,4.33-.78-1.32-.93-2.9-1.42-4.34-1.13,0-2.26,0-3.4,0ZM39.75,48.73c.94,2.49,1.9,4.97,2.85,7.45h3.48c.27-.78.76-1.53.72-2.38,0-1.69,0-3.38,0-5.07-.36,0-.72,0-1.08,0-.48,1.47-.56,3.1-1.33,4.45-.49-1.46-.81-2.97-1.23-4.45-1.13,0-2.27,0-3.4,0ZM47.09,48.73v7.45c1.08,0,2.17,0,3.25,0-1.06-.91-1.91-2.2-1.83-3.65-.09-1.5.72-2.88,1.86-3.79-1.09-.02-2.18-.01-3.28-.01ZM54.85,48.73c.84,2.47,1.71,4.93,2.53,7.4,1.05,0,2.1,0,3.16,0,.44-1.41.76-2.86,1.33-4.23.68,1.33.94,2.82,1.41,4.23,1.05,0,2.1,0,3.15,0,.21-.78.66-1.52.64-2.34,0-1.68,0-3.37,0-5.05-.39,0-.77,0-1.16,0-.41,1.39-.46,2.94-1.17,4.22-.53-1.37-.81-2.81-1.21-4.22-1.01,0-2.02,0-3.03,0-.25,1.12-.58,2.22-.84,3.34-.09.3-.09.71-.48.77-.45-1.35-.67-2.75-1.06-4.12-1.09.01-2.18,0-3.26,0Z"/>
          <path d="M27.57,48.41c.7.09,1.96-.08,2.02.93.1,1.09-1.28,1.08-2.03,1.04,0-.66,0-1.31,0-1.97Z"/>
          <path d="M70.66,48.41c.62.08,1.35-.03,1.85.42.16.32.3.75.04,1.06-.42.63-1.27.44-1.9.49,0-.66,0-1.31,0-1.97Z"/>
          <path d="M5.65,52.28c.36-1.12.72-2.25,1.13-3.35.35,1.12.75,2.22,1.08,3.35-.74,0-1.48,0-2.21,0Z"/>
          <path d="M36.51,51.59c.19-.74.77-1.48,1.62-1.3.79-.11,1.23.62,1.32,1.3-.98.01-1.97.01-2.95,0Z"/>
          <path d="M51.63,51.5c.31-.61.81-1.27,1.59-1.15.69-.05,1.05.59,1.27,1.14-.95.06-1.91.06-2.86,0Z"/>
          <path d="M93.64,51.59c.22-.71.78-1.46,1.62-1.3.77-.11,1.28.61,1.3,1.3-.98,0-1.95.01-2.93,0Z"/>
          <path d="M76,53.56c.47-.75,1.48-.55,2.23-.62-.03.54,0,1.2-.54,1.53-.63.62-2.03.04-1.69-.9Z"/>
        </g>
        <g>
          <path class="cls-6" d="M47.32,45.48c.27-.49.84-.65,1.33-.83.71.17,1.49.6,1.6,1.39.21,1.11-1.1,2.15-2.13,1.66-.88-.28-1.33-1.44-.8-2.21Z"/>
          <path class="cls-6" d="M5.07,46c1.17,0,2.35,0,3.52,0,.51,1.44,1.19,2.83,1.61,4.3.06,1.94,0,3.88.03,5.83-.37,0-.75,0-1.12-.01-.18-.51-.37-1.03-.54-1.55-1.23-.03-2.46-.03-3.69,0-.16.52-.33,1.03-.5,1.54-1.11.03-2.22,0-3.32.02,1.33-3.38,2.66-6.76,4.01-10.14ZM5.65,52.28c.74,0,1.48,0,2.21,0-.33-1.13-.73-2.23-1.08-3.35-.42,1.1-.77,2.23-1.13,3.35Z"/>
          <path class="cls-6" d="M24.28,46.01c1.89.05,3.8-.12,5.68.12,1.27.17,2.37,1.01,2.79,2.23-.81,0-1.62,0-2.43,0-.04,1.41.02,2.83.02,4.24-.94.19-1.89.21-2.85.22v3.31c-1.07,0-2.14,0-3.21,0v-10.13ZM27.57,48.41c-.01.66-.01,1.31,0,1.97.75.04,2.13.05,2.03-1.04-.06-1-1.32-.84-2.02-.93Z"/>
          <path class="cls-6" d="M67.37,56.13v-10.12c1.93.06,3.88-.13,5.81.14,1.17.19,2.16.97,2.63,2.06-.94.31-1.85.74-2.56,1.45.61.64,1.24,1.26,1.86,1.89-.83.27-1.4,1.07-2.3,1.17-.74.11-1.5.08-2.25.11-.01,1.1-.02,2.2.03,3.31-1.07,0-2.15,0-3.22,0ZM70.66,48.41c0,.66,0,1.31,0,1.97.64-.05,1.49.14,1.9-.49.25-.31.11-.74-.04-1.06-.5-.45-1.24-.34-1.85-.42Z"/>
          <path class="cls-6" d="M87.3,49.05c1.47-1.04,3.39-.76,4.98-.18-.55.55-1.07,1.15-1.41,1.86-.55-.13-1.35-.37-1.67.27.34.44.91.48,1.4.63-.22,1.52.29,3.05,1.35,4.16-1.83,1.28-4.35.89-6.16-.23.53-.59,1.05-1.18,1.56-1.79.69.41,1.9,1.17,2.45.19-.7-.74-1.93-.53-2.69-1.22-1.22-.88-1.01-2.9.2-3.7Z"/>
          <path class="cls-6" d="M13.61,49.69c.75-.63,1.58-1.28,2.63-1.19.69,1.68,1.41,3.34,2.12,5.01.41.83.22,1.78.26,2.67-1.02,0-2.04,0-3.06,0-.06-1.53.17-3.09-.07-4.6-.19-.96-1.78-.72-1.8.23-.07,1.46.03,2.92,0,4.37-1.05,0-2.09,0-3.14,0-.04-2.48.02-4.96.02-7.44.99,0,1.99,0,2.98,0,0,.24.03.72.04.96Z"/>
          <path class="cls-6" d="M33.74,49.76c.56-.63,1.21-1.21,2.09-1.32-.95.62-1.85,1.44-2.17,2.56-.62,1.71.35,3.43.1,5.18h-3.04v-7.45c.98,0,1.96,0,2.94,0,.02.26.07.77.09,1.03Z"/>
          <path class="cls-6" d="M35.1,49.48c1.11-1.02,2.75-1.26,4.18-.91.55,1.5,1.14,2.98,1.7,4.48-1.48,0-2.95-.03-4.43.02.24,1.38,2.04,1.58,2.99.79.71.35,1.42.7,2.14,1.06-1.59,1.86-4.65,2.08-6.53.54-1.74-1.46-1.78-4.5-.05-5.99ZM36.51,51.59c.98.01,1.97.01,2.95,0-.1-.68-.54-1.41-1.32-1.3-.86-.18-1.44.56-1.62,1.3Z"/>
          <path class="cls-6" d="M50.3,49.36c1.16-.95,2.78-1.14,4.2-.75.51,1.52,1.04,3.02,1.55,4.54-1.46.01-2.91-.03-4.37.03.29.41.55.93,1.1,1.01.66.28,1.27-.15,1.85-.4.74.31,1.44.7,2.14,1.08-1.47,1.92-4.53,2.13-6.42.72-1.94-1.44-1.95-4.74-.05-6.23ZM51.63,51.5c.95.06,1.9.06,2.86,0-.22-.55-.57-1.2-1.27-1.14-.78-.13-1.28.54-1.59,1.15Z"/>
          <path class="cls-6" d="M73.79,49.63c1.52-1.16,3.58-1.55,5.39-.88.01,1.69-.03,3.39.02,5.08.02.88.4,1.73,1.03,2.33-.66-.03-1.33-.03-1.99-.02-.05-.18-.16-.54-.21-.72-.91,1.06-2.54,1.32-3.7.5-1.19-.76-1.23-2.8,0-3.54,1.1-.7,2.45-.7,3.7-.8-.04-.21-.14-.62-.18-.82-.87-.4-1.85-.19-2.62.33-.48-.48-.97-.96-1.45-1.45ZM76,53.56c-.34.95,1.06,1.52,1.69.9.54-.32.51-.98.54-1.53-.75.07-1.76-.13-2.23.62Z"/>
          <path class="cls-6" d="M79.49,48.63h3.21c.05,1.54-.1,3.09.08,4.61.16.93,1.61.7,1.65-.19.15-1.47.02-2.95.06-4.43,1,0,2,.01,2.99-.02-.73.6-1.48,1.39-1.39,2.42-.11,1.18.92,1.96,1.81,2.51l-.61.07c-.66.6-1.18,1.34-1.78,2,.37.22.74.42,1.12.63h-2.08c0-.31,0-.62.02-.94-.7.75-1.64,1.35-2.71,1.18-1.26-.02-2.25-1.14-2.33-2.36-.1-1.82-.01-3.66-.04-5.49Z"/>
          <path class="cls-6" d="M91.29,50.81c1.03-2.54,4.82-3.22,6.71-1.26.94.9,1.14,2.26,1.18,3.5-1.83.03-3.67-.06-5.5.05.32,1.33,2.08,1.57,3.03.75.71.35,1.42.7,2.12,1.06-1.69,2.06-5.3,2.13-7,.05-.97-1.13-1.05-2.81-.54-4.15ZM93.64,51.59c.97.01,1.95,0,2.93,0-.02-.69-.53-1.41-1.3-1.3-.84-.16-1.4.59-1.62,1.3Z"/>
          <path class="cls-6" d="M16.75,48.73c1.13,0,2.26,0,3.4,0,.49,1.44.64,3.02,1.42,4.34.45-1.42.75-2.89,1.12-4.33.45,0,.9,0,1.35,0,0,1.52,0,3.05,0,4.57.03.69-.37,1.28-.58,1.91-.59,1.38-.95,2.99-2.23,3.93-1.19.85-2.72.6-4.08.48.13-.81.23-1.63.36-2.44.75.06,1.77.21,2.17-.63.32-.33.09-.75-.05-1.1-.96-2.24-1.91-4.48-2.86-6.73Z"/>
          <path class="cls-6" d="M39.75,48.73c1.13,0,2.27,0,3.4,0,.42,1.48.74,2.99,1.23,4.45.77-1.35.85-2.98,1.33-4.45.36,0,.72,0,1.08,0,0,1.69,0,3.38,0,5.07.04.85-.45,1.6-.72,2.38h-3.48c-.95-2.48-1.9-4.97-2.85-7.45Z"/>
          <path class="cls-6" d="M47.09,48.73c1.09,0,2.18-.01,3.28.01-1.14.92-1.96,2.29-1.86,3.79-.07,1.45.77,2.74,1.83,3.65-1.08,0-2.17,0-3.25,0v-7.45Z"/>
          <path class="cls-6" d="M54.85,48.73c1.09,0,2.17,0,3.26,0,.39,1.36.61,2.77,1.06,4.12.39-.06.4-.47.48-.77.26-1.12.58-2.22.84-3.34,1.01,0,2.02,0,3.03,0,.41,1.41.69,2.85,1.21,4.22.7-1.28.76-2.83,1.17-4.22.39,0,.77,0,1.16,0,0,1.69,0,3.37,0,5.05.02.83-.43,1.56-.64,2.34-1.05,0-2.1,0-3.15,0-.47-1.41-.73-2.9-1.41-4.23-.57,1.37-.88,2.82-1.33,4.23-1.05,0-2.1,0-3.16,0-.83-2.47-1.69-4.93-2.53-7.4Z"/>
        </g>
      </g>
    </g>
  </g>
</svg>