<?xml version="1.0" encoding="UTF-8"?>
<svg id="Layer_2" data-name="Layer 2" xmlns="http://www.w3.org/2000/svg" xmlns:xlink="http://www.w3.org/1999/xlink" viewBox="0 0 100 100">
  <defs>
    <style>
      .cls-1 {
        font-family: AvenirNext-Regular, 'Avenir Next';
        font-size: 5.67px;
      }

      .cls-2 {
        fill: #f7cd47;
      }

      .cls-3 {
        fill: url(#linear-gradient);
      }

      .cls-4 {
        letter-spacing: 0em;
      }

      .cls-5 {
        fill: #fff;
      }

      .cls-6 {
        letter-spacing: -.02em;
      }

      .cls-7 {
        letter-spacing: -.04em;
      }

      .cls-8 {
        letter-spacing: -.04em;
      }

      .cls-9 {
        fill: #4f76a1;
      }

      .cls-10 {
        fill: #fdfdfd;
      }

      .cls-11 {
        font-family: AvenirNext-Bold, 'Avenir Next';
        font-size: 7.5px;
        font-weight: 700;
      }
    </style>
    <linearGradient id="linear-gradient" x1="55.36" y1="19.44" x2="65.1" y2="19.44" gradientUnits="userSpaceOnUse">
      <stop offset="0" stop-color="#f8cd46" stop-opacity="0"/>
      <stop offset=".8" stop-color="#f8cd46"/>
    </linearGradient>
  </defs>
  <g id="Layer_1-2" data-name="Layer 1">
    <path class="cls-9" d="M100,89.62c-18.93-10-65.86-15.34-100-1.43V14.63c18.86,10.3,43.54,15.89,72.22,10.35-1.7,2.87-4.45,6.46-8.19,10.63,5.09-2.46,16.24-9.55,22.39-15.88,5.28-.67,9.9-2.8,13.58-5.23v75.12Z"/>
    <path d="M0,88.19v11.81h100v-10.38C81.07,79.61,34.14,74.28,0,88.19Z"/>
    <path d="M0,0v14.63c18.86,10.3,43.54,15.89,72.22,10.35-1.7,2.87-4.45,6.46-8.19,10.63,5.09-2.46,16.24-9.55,22.39-15.88,5.28-.67,9.9-2.8,13.58-5.23V0H0Z"/>
    <text class="cls-11" transform="translate(26.07 70.78)"><tspan x="0" y="0">Base / 2 / </tspan><tspan class="cls-8" x="35.81" y="0">P</tspan><tspan class="cls-6" x="40.29" y="0">r</tspan><tspan class="cls-4" x="43.12" y="0">o</tspan></text>
    <text class="cls-1" transform="translate(38.11 39.52)"><tspan class="cls-7" x="0" y="0">W</tspan><tspan x="5.31" y="0">orkflow</tspan></text>
    <path class="cls-2" d="M49,4.82c-1.04,1.28-1.77,2.77-2.14,4.38-2.4-1.23-5.33-.28-6.56,2.12-1.23,2.4-.28,5.33,2.12,6.56s5.33.28,6.56-2.12c.35-.69.53-1.45.53-2.22v8.44c-2.83,1.64-6.3,1.74-9.23.28-4.81-2.41-6.77-8.26-4.36-13.07,2.41-4.81,8.26-6.77,13.07-4.36Z"/>
    <path class="cls-9" d="M57.31,19.39h-1.95v-4.87h1.95c1.61,0,2.92-1.31,2.92-2.92s-1.31-2.92-2.92-2.92-2.92,1.31-2.92,2.92v11.69h-4.87v-11.69c0-4.3,3.49-7.79,7.79-7.79s7.79,3.49,7.79,7.79-3.49,7.79-7.79,7.79Z"/>
    <path class="cls-3" d="M57.43,23.28c4.24,0,7.67-3.44,7.67-7.67-1.5,2.92-4.51,4.75-7.79,4.75h-1.95v2.92h2.07Z"/>
    <path class="cls-2" d="M36.47,91.31c-.15.08-.32.12-.51.12-.17,0-.32-.03-.47-.1-.14-.07-.27-.16-.38-.28-.11-.12-.19-.26-.25-.43-.06-.16-.09-.35-.09-.54s.03-.37.09-.54c.06-.17.15-.31.26-.43.11-.12.24-.22.39-.28.15-.07.31-.1.49-.1s.33.03.46.09c.13.06.24.15.34.26l.71-.58c-.09-.12-.19-.21-.31-.29-.12-.08-.24-.14-.36-.19s-.25-.08-.38-.1c-.13-.02-.25-.03-.37-.03-.33,0-.63.05-.91.15-.28.1-.52.25-.72.44-.2.19-.36.43-.47.7-.11.27-.17.58-.17.92s.06.64.17.92c.11.27.27.51.47.7.2.19.44.34.72.44.28.1.58.15.91.15.29,0,.57-.06.85-.18.27-.12.5-.3.68-.55l-.77-.58c-.1.14-.22.25-.36.33Z"/>
    <path class="cls-2" d="M40.64,89.63c-.14-.13-.32-.24-.51-.31-.2-.07-.41-.11-.63-.11s-.43.04-.63.11c-.2.07-.37.17-.51.31s-.26.29-.34.48c-.08.19-.13.4-.13.63s.04.44.13.62c.08.19.2.35.34.48s.32.24.51.31c.2.07.41.11.63.11s.43-.04.63-.11c.2-.07.37-.17.51-.31.14-.13.26-.29.34-.48.08-.19.12-.39.12-.62s-.04-.44-.12-.63c-.08-.19-.2-.35-.34-.48ZM40.03,91.26c-.12.14-.3.2-.53.2s-.4-.07-.53-.2c-.12-.13-.19-.31-.19-.53s.06-.4.19-.53c.12-.13.3-.2.53-.2s.4.07.53.2c.12.13.19.31.19.53s-.06.39-.19.53Z"/>
    <path class="cls-2" d="M45.96,89.58c-.08-.11-.18-.2-.32-.27-.13-.07-.3-.1-.49-.1-.21,0-.39.04-.54.12-.15.08-.27.21-.38.4-.08-.18-.2-.31-.35-.39-.16-.08-.34-.12-.54-.12-.11,0-.21.01-.3.04-.09.03-.17.06-.24.11-.07.04-.13.09-.18.15-.05.06-.09.11-.12.17h-.01v-.39h-.86v2.89h.89v-1.44c0-.1,0-.19.02-.27.01-.09.04-.17.07-.24.04-.07.09-.12.16-.17.07-.04.16-.06.28-.06.1,0,.18.02.24.07.05.05.09.11.12.17.02.07.04.14.04.21,0,.08,0,.14,0,.19v1.53h.89v-1.53c0-.09,0-.17.03-.25.02-.08.05-.15.09-.21.04-.06.1-.11.17-.14.07-.03.16-.05.26-.05.15,0,.25.05.31.15.06.1.09.21.09.35v1.68h.89v-1.71c0-.17-.02-.34-.05-.49-.03-.15-.09-.29-.17-.4Z"/>
    <path class="cls-2" d="M48.01,88.83c0-.19.04-.32.11-.38.07-.06.18-.09.32-.09.06,0,.11,0,.15.02.04,0,.09.02.14.04l.04-.76c-.08-.02-.17-.03-.26-.04-.09,0-.18-.01-.27-.01-.24,0-.44.03-.59.09-.15.06-.26.15-.34.25-.08.11-.13.23-.16.37-.03.14-.04.29-.04.45v.51h-.59v.71h.59v2.18h.89v-2.18h.66v-.71h-.66v-.46Z"/>
    <path class="cls-2" d="M51.07,89.29l-.64,1.91h-.01l-.74-1.91h-.96l1.27,2.92-.07.17c-.03.08-.06.15-.09.21-.03.06-.06.11-.1.15-.04.04-.09.07-.16.1-.06.02-.14.03-.24.03-.14,0-.28-.03-.42-.09l-.12.73c.21.07.44.11.67.11.21,0,.39-.02.52-.06.13-.04.24-.1.32-.18.09-.08.16-.18.21-.3.06-.12.11-.26.17-.41l1.31-3.36h-.92Z"/>
    <path class="cls-5" d="M54.81,88.21c-.14-.09-.29-.15-.47-.19-.18-.04-.36-.06-.56-.06h-1.25v4.21h.5v-1.89h.85c.15,0,.3-.02.46-.05.16-.04.31-.1.45-.18.14-.09.25-.21.34-.36.09-.15.13-.34.13-.57s-.04-.4-.12-.55c-.08-.15-.19-.27-.33-.36ZM54.49,89.65c-.16.11-.36.17-.61.17h-.85v-1.39h.85c.25,0,.45.06.61.17.16.11.24.29.24.53s-.08.41-.24.53Z"/>
    <path class="cls-5" d="M58.21,91.7v-1.2c0-.4-.09-.69-.27-.89-.18-.19-.48-.29-.89-.29-.2,0-.4.03-.6.1s-.37.18-.51.32l.29.3c.11-.1.24-.18.38-.23.14-.05.29-.07.44-.07.22,0,.39.05.51.15.12.1.18.26.18.46v.08h-.18c-.17,0-.36,0-.56.02-.2.02-.39.06-.57.12-.18.06-.32.16-.44.29-.12.13-.18.31-.18.54,0,.13.03.25.08.36.06.1.13.19.22.26.09.07.2.12.33.16.12.04.26.05.4.05.21,0,.4-.05.55-.14.15-.09.27-.21.37-.35h.01c0,.06,0,.13,0,.21,0,.08.01.15.03.21h.45c-.01-.07-.02-.15-.03-.24,0-.09-.01-.17-.01-.25ZM57.75,91.02c0,.12-.02.22-.06.32-.04.1-.09.19-.15.26-.07.08-.15.14-.25.18-.1.05-.22.07-.35.07-.17,0-.32-.04-.44-.11-.12-.07-.18-.2-.18-.37,0-.19.09-.33.26-.41.17-.08.41-.12.71-.12h.46v.18Z"/>
    <path class="cls-5" d="M61.24,89.64c-.09-.1-.2-.18-.33-.23-.13-.06-.29-.08-.47-.08-.12,0-.22.01-.32.04-.1.03-.19.07-.27.12-.08.05-.15.11-.21.17-.06.06-.1.13-.13.2h-.01c0-.08,0-.16,0-.23,0-.08,0-.15,0-.23h-.44c0,.09,0,.19.01.3,0,.11.01.23.01.36v2.12h.46v-1.36c0-.16.02-.3.05-.43.03-.13.09-.24.15-.34.07-.1.16-.17.27-.22.11-.05.24-.08.39-.08.22,0,.38.07.48.2s.15.32.15.55v1.67h.46v-1.72c0-.17-.02-.32-.06-.46-.04-.14-.11-.26-.19-.36Z"/>
    <path class="cls-5" d="M64.6,89.71c-.12-.13-.26-.22-.42-.29-.16-.07-.34-.1-.54-.1-.21,0-.4.04-.57.11-.17.07-.33.17-.45.3-.13.13-.23.28-.3.46-.07.18-.11.38-.11.59,0,.2.03.39.1.57.07.18.16.33.28.46.12.13.27.24.44.31.17.08.37.12.59.12.26,0,.49-.04.69-.13.2-.09.38-.24.55-.45l-.35-.27c-.11.14-.24.24-.38.32-.14.07-.31.11-.51.11-.13,0-.24-.02-.35-.07-.11-.05-.2-.11-.28-.19-.08-.08-.14-.18-.19-.29-.05-.11-.08-.22-.09-.34h2.25v-.15c0-.23-.03-.44-.1-.62-.06-.18-.15-.33-.27-.46ZM62.71,90.54c.03-.24.13-.43.29-.57s.37-.21.63-.21.46.07.61.21.22.33.23.57h-1.75Z"/>
    <rect class="cls-5" x="65.73" y="87.68" width=".46" height="4.5"/>
    <g id="_000000ff" data-name="#000000ff">
      <path d="M2.14,45.7h3.78c.94,1.53,1.76,3.14,2.68,4.69-.02-1.56-.06-3.12-.11-4.69h3.75c0,4.47,0,8.93,0,13.4h-3.88c-.86-1.45-1.7-2.93-2.57-4.38,0,1.46,0,2.92,0,4.38h-3.65v-13.4M2.44,46v10.13c1.01,0,2.02,0,3.03,0-.04-1.49-.13-2.97-.17-4.46-.07-.26.08-.48.18-.7,1.23,1.6,2,3.5,3.17,5.14,1.1.05,2.19,0,3.29.02.01-3.38,0-6.75,0-10.13-1.02,0-2.05,0-3.07,0,.12,1.84.25,3.69.11,5.53-.55-.52-.86-1.22-1.23-1.86-.7-1.23-1.39-2.46-2.09-3.69-1.08.01-2.15,0-3.23,0Z"/>
      <path d="M42.52,45.7h5.8c1.04.21,2.23.57,2.73,1.6.67,1.44,0,3.08.42,4.58.46,1.49.29,3.07.23,4.6-.14,1.53-1.72,2.45-3.13,2.57-2.01.13-4.03.02-6.05.05,0-4.47,0-8.93,0-13.4M42.88,46v10.13c1.41,0,2.82-.02,4.24,0,1.06.06,2.2-.04,3.13-.63,1.06-.65,1.54-2.18.89-3.27-.38-.68-1.12-1.01-1.8-1.3.37-.32.8-.56,1.15-.91.57-.61.61-1.55.35-2.31-.35-.93-1.33-1.42-2.26-1.56-1.88-.3-3.8-.11-5.69-.16Z"/>
      <path d="M13.63,49.55c1.44-1.38,3.65-1.79,5.53-1.26,1.53.44,2.42,2.15,2.16,3.67-.06-.08-.17-.25-.23-.33-.15-1.07-.52-2.27-1.57-2.79-1.79-.85-3.95-.36-5.5.77.47.49.95.97,1.43,1.45.68-.33,1.43-.76,2.21-.5.44.14.5.66.68,1.02-1.38.06-2.93.02-4.04.98-.99.82-.83,2.52.2,3.25,1.1.84,2.76.65,3.7-.35l.26.39-.28.2.19.02c.94.19,1.91.08,2.86.08.03-1.18-.01-2.36,0-3.55-.01-.34.1-.65.27-.94-.1,2.47,0,4.93-.04,7.4-1.23-.02-2.46.1-3.67-.12-1.47.69-3.53.41-4.31-1.16-.28-.9-.1-1.87-.18-2.8-.07-.83.03-1.67.36-2.44-.09-1-.2-2.03-.03-3.02Z"/>
      <path d="M26.22,48.87c1.1-.79,2.69-1.03,3.84-.21.96.67,1.21,1.91,1.22,3.01,0,2.47,0,4.95,0,7.42-1.26,0-2.51,0-3.77,0-.04-1.67.11-3.36-.11-5.02-.14-.05-.42-.15-.56-.2-.16.23-.5.37-.49.68-.08,1.51,0,3.03-.03,4.54-1.26,0-2.51,0-3.77,0,0-3.57,0-7.14,0-10.71,1.21,0,2.42,0,3.63,0,.01.12.04.37.05.49M25.89,49.68c0-.24-.03-.72-.04-.96-1,0-1.99,0-2.98,0,0,2.47-.05,4.93-.03,7.4,1.04,0,2.08,0,3.12,0,0-1.33-.07-2.66-.02-3.99,0-.48.27-.88.58-1.22.49.04,1.25.05,1.26.73.09,1.49,0,2.99.03,4.48,1.04,0,2.07,0,3.11,0-.01-1.72-.02-3.44-.05-5.16-.05-1.26-1.07-2.51-2.41-2.43-1.03-.16-1.83.56-2.57,1.15Z"/>
      <path d="M35.28,48.26c1.86-.49,4.14-.06,5.33,1.56.77,1,.88,2.31.84,3.53-.04,1.34.11,2.8-.64,3.98-1.67,2.75-6.3,2.8-8.02.08-.92-1.42-.65-3.2-.72-4.8-.04-1.96,1.25-3.9,3.21-4.35M35.42,48.61c-2.25.47-3.54,3.11-2.69,5.21.89,2.71,4.68,3.44,6.81,1.75,1.83-1.32,2.04-4.28.47-5.87-1.17-1.19-3.02-1.52-4.58-1.09Z"/>
      <path d="M52.49,49.58c1.58-1.37,3.87-1.91,5.86-1.21,1.34.5,2.01,1.96,2.04,3.32.04,2.46,0,4.93.02,7.4-1.22-.03-2.45.14-3.65-.12-.93.37-1.99.54-2.93.12-.97-.34-1.6-1.36-1.56-2.37,0-1.36-.25-2.79.31-4.08-.12-1.01-.08-2.04-.1-3.06M52.99,49.67c.47.48.96.94,1.46,1.38.69-.35,1.55-.8,2.31-.4.42.15.39.63.47.98-1.35,0-2.86.01-3.95.93-.96.78-.85,2.4.05,3.18,1.13.96,2.94.78,3.92-.32.03.19.08.56.1.75.9,0,1.79,0,2.69,0-.01-1.5.02-3.01-.01-4.51-.07-1.14-.56-2.43-1.7-2.88-1.77-.73-3.88-.28-5.35.9Z"/>
      <path d="M65.18,48.88c1.06-.79,2.57-1.01,3.72-.3.97.58,1.33,1.78,1.32,2.85,0,2.55,0,5.1,0,7.65-1.26.02-2.52.01-3.78.01-.07-1.61.14-3.24-.13-4.83-.11-.62-1.1-.25-1.01.3-.12,1.51-.02,3.02-.06,4.53-1.26,0-2.51,0-3.77,0,0-3.57,0-7.14,0-10.71,1.23,0,2.46,0,3.69,0v.5M64.87,49.69c0-.24-.03-.73-.05-.98-.98,0-1.96,0-2.95,0,0,2.47-.05,4.93-.03,7.4,1.04,0,2.07,0,3.12,0,.06-1.64-.21-3.32.13-4.94.4-.15.81-.23,1.23-.28.23.3.48.62.47,1.02.07,1.4,0,2.8.03,4.19,1.04,0,2.07,0,3.11,0,0-1.48-.04-2.95-.04-4.43,0-.99-.22-2.15-1.11-2.74-.63-.5-1.49-.48-2.25-.36-.66.19-1.12.72-1.67,1.1Z"/>
      <path d="M72.52,48.61c1.58-.54,3.44-.87,4.98-.04,1.2.64,1.63,2.07,1.63,3.34,0,2.39,0,4.79,0,7.18-1.22.03-2.45.01-3.66-.07-.91.24-1.89.49-2.8.1-1.02-.33-1.7-1.36-1.66-2.42,0-1.38-.23-2.82.36-4.11-.19-1-.13-2.01-.12-3.02.4-.27.79-.58,1.26-.74-.07.12-.21.35-.28.46-.11.09-.33.28-.44.38.46.46.93.92,1.39,1.38.7-.34,1.54-.79,2.32-.42.39.15.4.61.45.95-1.41.1-3.03.05-4.11,1.14-1.01,1.14-.34,3.15,1.13,3.5,1.09.43,2.23-.06,3.03-.82.03.18.08.54.11.72.91,0,1.82,0,2.73,0-.07-1.56.02-3.12-.1-4.68-.07-1.09-.61-2.25-1.68-2.68-1.31-.58-2.77-.3-4.09.07-.11-.06-.34-.16-.45-.22Z"/>
      <path d="M83.91,48.86c.99-.65,2.27-.97,3.39-.46,1.1.44,1.64,1.66,1.64,2.79.01,2.63,0,5.27,0,7.91-1.26,0-2.51,0-3.77,0-.02-1.52.04-3.04-.02-4.56.06-.35-.33-.75-.67-.57-.47.12-.47.65-.5,1.03-.04,1.37,0,2.73-.01,4.1-1.26,0-2.51,0-3.77,0,0-3.57,0-7.14,0-10.71,1.23,0,2.46,0,3.69,0,0,.12,0,.36,0,.48M83.65,49.7c-.07-.33-.13-.66-.18-.99-.96,0-1.92,0-2.87,0,0,2.47-.05,4.94-.03,7.4,1.04,0,2.07,0,3.11,0,.01-1.41-.03-2.81.01-4.22-.03-.39.28-.66.5-.93.21,0,.63-.02.84-.03.24.28.5.56.5.95.09,1.42-.03,2.85,0,4.27,1.03,0,2.06,0,3.1,0-.01-1.73.01-3.46-.07-5.18-.03-1.28-1.08-2.53-2.42-2.45-1.01-.14-1.82.52-2.5,1.17Z"/>
      <path d="M89.95,49.57c1.65-1.4,4.08-1.97,6.11-1.1,1.11.49,1.63,1.69,1.8,2.82v7.8c-1.19,0-2.39.04-3.58-.1-.88.26-1.83.5-2.72.18-.98-.28-1.74-1.18-1.79-2.21-.1-1.46-.19-2.98.31-4.38-.15-1-.14-2.01-.13-3.02M90.49,49.64c.47.49.95.96,1.43,1.45.67-.39,1.47-.8,2.25-.49.45.13.47.63.55,1.01-1.34.05-2.85.02-3.94.93-1.04.84-.83,2.62.23,3.35,1.15.8,2.78.55,3.69-.48.02.18.05.54.06.72.93-.01,1.86,0,2.79,0-.06-1.81.17-3.64-.2-5.42-.19-.93-.89-1.72-1.78-2.03-1.72-.56-3.67-.13-5.09.97Z"/>
      <path d="M45.94,48.43c.67.05,2.06-.17,1.97.86-.12.91-1.32.67-1.97.72,0-.53,0-1.06,0-1.58Z"/>
      <path d="M36.38,50.99c1-.31,2.04.64,1.86,1.66-.09.98-1.24,1.59-2.12,1.16-1.18-.51-1.02-2.54.26-2.82Z"/>
      <path d="M45.93,52.03c.81-.02,2.29-.11,2.18,1.09-.42.78-1.45.54-2.18.6,0-.57,0-1.13,0-1.7Z"/>
      <path d="M73.94,53.58c.42-.76,1.48-.6,2.22-.7-.05.47.05,1.04-.32,1.41-.24.26-.61.32-.91.48-.54-.15-1.23-.5-.99-1.18Z"/>
      <path d="M92.67,53.61c.4-.79,1.49-.66,2.24-.71.02.67-.1,1.57-.9,1.72-.62.26-1.63-.26-1.35-1.02Z"/>
      <path d="M16.76,53.19c.52-.19,1.08-.18,1.63-.22-.07.42-.01.91-.33,1.25-.41.49-1.27.51-1.68,0-.24-.38-.01-.88.38-1.04Z"/>
      <path d="M55.19,53.55c.62-.52,1.44-.57,2.22-.56-.08.51-.11,1.15-.62,1.43-.65.5-1.69,0-1.6-.86Z"/>
    </g>
    <g id="_fdfdfdff" data-name="#fdfdfdff">
      <path class="cls-10" d="M2.44,46c1.08,0,2.15,0,3.23,0,.7,1.23,1.39,2.46,2.09,3.69.37.64.68,1.35,1.23,1.86.14-1.84,0-3.69-.11-5.53,1.03-.01,2.05,0,3.07,0,0,3.38,0,6.75,0,10.13-1.1-.02-2.19.03-3.29-.02-1.17-1.63-1.94-3.54-3.17-5.14-.1.22-.25.44-.18.7.03,1.49.13,2.97.17,4.46-1.01,0-2.02,0-3.03,0v-10.13Z"/>
      <path class="cls-10" d="M42.88,46c1.9.05,3.81-.14,5.69.16.93.13,1.91.63,2.26,1.56.27.75.22,1.7-.35,2.31-.35.34-.78.59-1.15.91.68.29,1.43.62,1.8,1.3.65,1.09.17,2.63-.89,3.27-.92.59-2.06.69-3.13.63-1.41-.03-2.82,0-4.24,0v-10.13M45.94,48.43c0,.53,0,1.06,0,1.58.66-.05,1.85.19,1.97-.72.09-1.03-1.3-.81-1.97-.86M45.93,52.03c0,.56,0,1.13,0,1.7.73-.06,1.76.18,2.18-.6.11-1.2-1.37-1.12-2.18-1.09Z"/>
      <path class="cls-10" d="M90.49,49.64c1.42-1.11,3.37-1.53,5.09-.97.89.31,1.59,1.11,1.78,2.03.37,1.78.14,3.62.2,5.42-.93,0-1.86,0-2.79,0-.02-.18-.05-.54-.06-.72-.92,1.03-2.54,1.29-3.69.48-1.06-.73-1.27-2.51-.23-3.35,1.09-.91,2.59-.88,3.94-.93-.08-.38-.11-.88-.55-1.01-.78-.31-1.58.1-2.25.49-.48-.48-.96-.96-1.43-1.45M92.67,53.61c-.28.76.73,1.28,1.35,1.02.8-.15.92-1.06.9-1.72-.75.05-1.84-.09-2.24.71Z"/>
      <path class="cls-10" d="M14.02,49.62c1.55-1.13,3.72-1.62,5.5-.77,1.05.51,1.42,1.72,1.57,2.79-.07,1.44.1,2.92-.08,4.34-.83.28-1.78.04-2.65.12l-.19-.02.28-.2-.26-.39c-.94,1-2.59,1.19-3.7.35-1.02-.73-1.19-2.43-.2-3.25,1.11-.96,2.66-.92,4.04-.98-.18-.37-.24-.88-.68-1.02-.78-.26-1.53.17-2.21.5-.48-.49-.95-.96-1.43-1.45M16.76,53.19c-.39.16-.62.65-.38,1.04.41.51,1.27.49,1.68,0,.32-.34.26-.83.33-1.25-.55.03-1.11.03-1.63.22Z"/>
      <path class="cls-10" d="M25.89,49.68c.74-.59,1.54-1.31,2.57-1.15,1.34-.08,2.36,1.17,2.41,2.43.03,1.72.04,3.44.05,5.16-1.04,0-2.07,0-3.11,0-.03-1.49.05-2.99-.03-4.48,0-.67-.77-.68-1.26-.73-.31.34-.58.74-.58,1.22-.04,1.33.03,2.66.02,3.99-1.04,0-2.08,0-3.12,0-.02-2.47.03-4.94.03-7.4,1,0,1.99,0,2.98,0,0,.24.03.73.04.96Z"/>
      <path class="cls-10" d="M35.42,48.61c1.57-.43,3.42-.1,4.58,1.09,1.57,1.6,1.36,4.56-.47,5.87-2.13,1.69-5.92.95-6.81-1.75-.85-2.1.44-4.73,2.69-5.21M36.38,50.99c-1.28.28-1.44,2.31-.26,2.82.88.44,2.03-.17,2.12-1.16.18-1.02-.86-1.97-1.86-1.66Z"/>
      <path class="cls-10" d="M52.99,49.67c1.47-1.18,3.58-1.63,5.35-.9,1.14.46,1.62,1.74,1.7,2.88.03,1.5,0,3.01.01,4.51-.9,0-1.8,0-2.69,0-.03-.19-.08-.56-.1-.75-.98,1.1-2.78,1.28-3.92.32-.9-.78-1.01-2.4-.05-3.18,1.09-.92,2.6-.93,3.95-.93-.08-.36-.06-.84-.47-.98-.76-.4-1.62.05-2.31.4-.5-.44-.99-.9-1.46-1.38M55.19,53.55c-.1.86.94,1.36,1.6.86.51-.28.55-.92.62-1.43-.78,0-1.6.05-2.22.56Z"/>
      <path class="cls-10" d="M64.87,49.69c.54-.38,1.01-.91,1.67-1.1.75-.12,1.61-.14,2.25.36.89.59,1.1,1.75,1.11,2.74,0,1.48.04,2.95.04,4.43-1.04,0-2.07,0-3.11,0-.02-1.4.04-2.8-.03-4.19.02-.41-.24-.72-.47-1.02-.42.05-.83.13-1.23.28-.34,1.62-.07,3.3-.13,4.94-1.04,0-2.08,0-3.12,0-.02-2.47.03-4.94.03-7.4.98,0,1.97,0,2.95,0,.01.24.04.73.05.98Z"/>
      <path class="cls-10" d="M72.97,48.83c1.33-.37,2.78-.65,4.09-.07,1.06.43,1.61,1.6,1.68,2.68.12,1.56.03,3.12.1,4.68-.91,0-1.82,0-2.73,0-.03-.18-.08-.54-.11-.72-.8.76-1.94,1.24-3.03.82-1.47-.34-2.15-2.36-1.13-3.5,1.07-1.09,2.7-1.04,4.11-1.14-.05-.35-.06-.8-.45-.95-.78-.37-1.62.08-2.32.42-.46-.46-.93-.92-1.39-1.38.11-.1.33-.29.44-.38.24-.17.47-.35.74-.47M73.94,53.58c-.23.69.45,1.04.99,1.18.3-.16.67-.22.91-.48.37-.37.27-.94.32-1.41-.73.1-1.8-.06-2.22.7Z"/>
      <path class="cls-10" d="M83.65,49.7c.67-.65,1.49-1.31,2.5-1.17,1.34-.08,2.4,1.17,2.42,2.45.08,1.72.05,3.45.07,5.18-1.03,0-2.07,0-3.1,0-.04-1.42.08-2.85,0-4.27,0-.39-.27-.67-.5-.95-.21,0-.63.02-.84.03-.22.28-.52.55-.5.93-.04,1.4,0,2.81-.01,4.22-1.04,0-2.07,0-3.11,0-.02-2.47.03-4.93.03-7.4.96,0,1.92,0,2.87,0,.04.33.1.66.18.99Z"/>
    </g>
  </g>
</svg>